<svg xmlns="http://www.w3.org/2000/svg" viewBox="0 0 500 500"><g id="freepik--background-simple--inject-8"><path d="M420.64,65q-5.1-1.29-10.15-2.69c-36.3-10.14-205.3-54.94-260.89-27C87.17,66.6,17.45,320.5,73.44,370.09s268.88,97,310.13,64.19,104.24-262.6,96.8-311.35C474,81.31,432.61,68,420.64,65Z" style="fill:#92E3A9"></path><path d="M420.64,65q-5.1-1.29-10.15-2.69c-36.3-10.14-205.3-54.94-260.89-27C87.17,66.6,17.45,320.5,73.44,370.09s268.88,97,310.13,64.19,104.24-262.6,96.8-311.35C474,81.31,432.61,68,420.64,65Z" style="fill:#fff;opacity:0.7000000000000001"></path></g><g id="freepik--Circles--inject-8"><path d="M377.34,258.07a52.72,52.72,0,0,0-9.55-8.72,52.24,52.24,0,1,0,9.55,8.72Zm-23,78.79a47.88,47.88,0,1,1,11-84A48,48,0,0,1,385.49,292a47.83,47.83,0,0,1-24.62,41.85" style="fill:none;stroke:#263238;stroke-linecap:round;stroke-linejoin:round"></path><path d="M377.34,258.07a52.72,52.72,0,0,0-9.55-8.72,52.24,52.24,0,1,0,9.55,8.72Z" style="fill:none;stroke:#263238;stroke-linecap:round;stroke-linejoin:round"></path><path d="M376.36,242.92c-.86-.68-1.74-1.34-2.63-2a62,62,0,0,0-25.12-10.51A62.52,62.52,0,0,0,275.12,292a62.2,62.2,0,0,0,11.07,35.52,62.92,62.92,0,0,0,15.55,15.67,62.51,62.51,0,0,0,83.42-91.78c-.82-1-1.66-1.89-2.54-2.79m-45,95.61a52.23,52.23,0,1,1,30.16-94.86,52.72,52.72,0,0,1,9.55,8.72,52.23,52.23,0,0,1-39.71,86.14Z" style="fill:none;stroke:#263238;stroke-linecap:round;stroke-linejoin:round"></path><path d="M302.16,232.94a68.62,68.62,0,0,1,35.47-9.82v6.35a62.29,62.29,0,0,0-28.27,6.75" style="fill:none;stroke:#263238;stroke-linecap:round;stroke-linejoin:round"></path><path d="M302.78,240.08a62.52,62.52,0,0,0-16.59,87.42L281,331.11A68.88,68.88,0,0,1,297,236.37" style="fill:none;stroke:#263238;stroke-linecap:round;stroke-linejoin:round"></path><path d="M337.63,239.77v4.35a47.85,47.85,0,0,0-39.38,75.05l-3.6,2.48a52.22,52.22,0,0,1,43-81.88Z" style="fill:none;stroke:#263238;stroke-linecap:round;stroke-linejoin:round"></path><path d="M367.79,249.35l-2.52,3.56a47.42,47.42,0,0,0-19.23-8l.76-4.29A51.92,51.92,0,0,1,367.79,249.35Z" style="fill:none;stroke:#263238;stroke-linecap:round;stroke-linejoin:round"></path><path d="M377.4,235.76,373.73,241a62,62,0,0,0-25.12-10.51l1.12-6.25A68.51,68.51,0,0,1,377.4,235.76Z" style="fill:none;stroke:#263238;stroke-linecap:round;stroke-linejoin:round"></path><path d="M333.39,360.72a68.55,68.55,0,0,1-35.3-12.35l3.65-5.2a62.51,62.51,0,0,0,83.42-91.78l4.83-4.13a68.87,68.87,0,0,1-49,113.51" style="fill:none;stroke:#263238;stroke-linecap:round;stroke-linejoin:round"></path><path d="M433,390.91a30.43,30.43,0,0,0,6.71-2.83,29.27,29.27,0,0,0,9.42-8.67,27.92,27.92,0,0,0,2.57-4.5,29.38,29.38,0,1,0-18.7,16Zm-34.87-30.33a26.94,26.94,0,1,1,51.34,13.3,26.44,26.44,0,0,1-2.35,4.13,27,27,0,0,1-49-13.36" style="fill:none;stroke:#263238;stroke-linecap:round;stroke-linejoin:round"></path><path d="M433,390.91a30.43,30.43,0,0,0,6.71-2.83,29.27,29.27,0,0,0,9.42-8.67,27.92,27.92,0,0,0,2.57-4.5,29.38,29.38,0,1,0-18.7,16Z" style="fill:none;stroke:#263238;stroke-linecap:round;stroke-linejoin:round"></path><path d="M441,394c.55-.28,1.09-.57,1.62-.88a34.88,34.88,0,0,0,11.29-10.37,35.9,35.9,0,0,0,3.08-5.39,35.19,35.19,0,1,0-22.4,19.15c.68-.19,1.36-.41,2-.64m-38.31-45.51a29.4,29.4,0,1,1,53.41,24.58,27.92,27.92,0,0,1-2.57,4.5,29.27,29.27,0,0,1-9.42,8.67,30.43,30.43,0,0,1-6.71,2.83,29.41,29.41,0,0,1-34.71-40.58Z" style="fill:none;stroke:#263238;stroke-linecap:round;stroke-linejoin:round"></path><path d="M463.58,358.38a38.65,38.65,0,0,1-3.32,20.45l-3.25-1.5a35,35,0,0,0,3.2-16" style="fill:none;stroke:#263238;stroke-linecap:round;stroke-linejoin:round"></path><path d="M459.78,357A35.19,35.19,0,0,0,419,328l-.62-3.52A38.76,38.76,0,0,1,463,354.94" style="fill:none;stroke:#263238;stroke-linecap:round;stroke-linejoin:round"></path><path d="M451.74,374.91l-2.23-1a26.93,26.93,0,0,0-29.1-37.8l-.43-2.42a29.39,29.39,0,0,1,31.76,41.25Z" style="fill:none;stroke:#263238;stroke-linecap:round;stroke-linejoin:round"></path><path d="M439.75,388.08,438.52,386a26.8,26.8,0,0,0,8.64-7.94l2,1.4A29.27,29.27,0,0,1,439.75,388.08Z" style="fill:none;stroke:#263238;stroke-linecap:round;stroke-linejoin:round"></path><path d="M444.43,396.19l-1.79-3.1a34.88,34.88,0,0,0,11.29-10.37l2.93,2A38.59,38.59,0,0,1,444.43,396.19Z" style="fill:none;stroke:#263238;stroke-linecap:round;stroke-linejoin:round"></path><path d="M390.89,344.27a38.51,38.51,0,0,1,14.63-15.14l1.8,3.08a35.19,35.19,0,0,0,27.29,64.27l1,3.44a38.77,38.77,0,0,1-46.51-51.78" style="fill:none;stroke:#263238;stroke-linecap:round;stroke-linejoin:round"></path></g><g id="freepik--Rocket--inject-8"><path d="M471.31,213.12a8.44,8.44,0,0,0-3.51-6.89l-9.86,0a8.44,8.44,0,0,0-.75,13.16l0,0a17.64,17.64,0,0,1,2.46,3.46l3,22.43L465.87,223a17.92,17.92,0,0,1,2.57-3.61h0A8.44,8.44,0,0,0,471.31,213.12Zm-8.48,4.12c-.53,0-3.51-3.9-3.51-5.84s1.6-5,3.55-5,3.52,3.11,3.51,5.06S463.24,217.24,462.83,217.24Z" style="fill:none;stroke:#263238;stroke-linecap:round;stroke-linejoin:round"></path><path d="M398,212.83a8.42,8.42,0,0,0-3.5-6.88l-9.86,0a8.44,8.44,0,0,0-.76,13.15l0,0a17.85,17.85,0,0,1,2.45,3.46l2.95,21.25,3.31-21.05a17.66,17.66,0,0,1,2.56-3.61h0A8.41,8.41,0,0,0,398,212.83ZM389.56,217c-.53,0-3.5-3.91-3.5-5.85s1.59-5,3.54-5,3.52,3.1,3.51,5S390,217,389.56,217Z" style="fill:none;stroke:#263238;stroke-linecap:round;stroke-linejoin:round"></path><path d="M439.93,215a13.38,13.38,0,0,0-5.24-10.68l-16.16-.06a13.36,13.36,0,0,0-.92,20.61l0,.05s4.57,4.79,5.8,10.5l2.87,31.08L429.64,235c1.4-5.47,5.76-10,5.76-10v0A13.34,13.34,0,0,0,439.93,215Zm-13.4,6.54c-.84,0-5.55-6.17-5.54-9.25a5.58,5.58,0,0,1,11.16,0C432.14,215.43,427.19,221.56,426.53,221.56Z" style="fill:none;stroke:#263238;stroke-linecap:round;stroke-linejoin:round"></path><path d="M393.11,211.14c0,1.94-3.13,5.82-3.55,5.82s-3.5-3.91-3.5-5.85,1.59-5,3.54-5S393.12,209.19,393.11,211.14Z" style="fill:none;stroke:#263238;stroke-linecap:round;stroke-linejoin:round"></path><path d="M466.38,211.43c0,1.94-3.14,5.81-3.55,5.81s-3.51-3.9-3.51-5.84,1.6-5,3.55-5S466.39,209.48,466.38,211.43Z" style="fill:none;stroke:#263238;stroke-linecap:round;stroke-linejoin:round"></path><path d="M411.22,169.45l-14.83,13-.66,11.27,16.5-7.71Z" style="fill:none;stroke:#263238;stroke-linecap:round;stroke-linejoin:round"></path><path d="M397.48,163.56l-1.09,18.84-.66,11.27-.19,3.34-11.76,0L382.1,163.5a4.7,4.7,0,0,1,0-.92,34.64,34.64,0,0,1,1.51-6.14l12.38.05a35.68,35.68,0,0,1,1.47,6.15A7.06,7.06,0,0,1,397.48,163.56Z" style="fill:none;stroke:#263238;stroke-linecap:round;stroke-linejoin:round"></path><path d="M396,156.49l-12.36-.05c0-.05,0-.1,0-.14.21-.63.44-1.27.7-1.89l.27-.68.24-.56a21.44,21.44,0,0,1,1.05-2.09l.39-.65c.19-.3.39-.58.58-.84l.24-.3a8.38,8.38,0,0,1,.62-.68,3.83,3.83,0,0,1,1.37-.88l.31-.08h.06a1.94,1.94,0,0,1,.68,0h.06l.31.08a3.83,3.83,0,0,1,1.37.88c.21.21.41.44.62.69l.24.3c.19.27.37.55.56.85l.39.65a20.51,20.51,0,0,1,1,2.1l.24.56.27.68c.24.62.47,1.26.68,1.9C396,156.39,396,156.44,396,156.49Z" style="fill:none;stroke:#263238;stroke-linecap:round;stroke-linejoin:round"></path><path d="M383.63,156.44l.05-.14s0,.09,0,.14Z" style="fill:none;stroke:#263238;stroke-linecap:round;stroke-linejoin:round"></path><path d="M396,156.49h0c0-.05,0-.1,0-.14Z" style="fill:none;stroke:#263238;stroke-linecap:round;stroke-linejoin:round"></path><polygon points="395.54 197.01 395.02 205.95 384.23 205.91 383.78 196.96 395.54 197.01" style="fill:none;stroke:#263238;stroke-linecap:round;stroke-linejoin:round"></polygon><path d="M456.74,182.64l-14.42-12.79-1.14,16.38,16.12,7.68Z" style="fill:none;stroke:#263238;stroke-linecap:round;stroke-linejoin:round"></path><path d="M471.17,163.85l-1.94,33.45-11.76-.05-.17-3.34-.56-11.27-.95-18.85a4.71,4.71,0,0,1,0-.92,35.78,35.78,0,0,1,1.52-6.14l12.38.05a34.54,34.54,0,0,1,1.46,6.15A5.64,5.64,0,0,1,471.17,163.85Z" style="fill:none;stroke:#263238;stroke-linecap:round;stroke-linejoin:round"></path><polygon points="469.23 197.3 468.71 206.24 457.92 206.19 457.47 197.25 469.23 197.3" style="fill:none;stroke:#263238;stroke-linecap:round;stroke-linejoin:round"></polygon><path d="M469.69,156.78l-12.36-.05s0-.1,0-.14c.35-1.05.76-2.13,1.21-3.13l.3-.66c.19-.38.38-.75.57-1.1.09-.18.19-.36.29-.53a8.55,8.55,0,0,1,2.35-2.77,1.75,1.75,0,0,1,.29-.18,2.5,2.5,0,0,1,.48-.21l.28-.07h.06a2.33,2.33,0,0,1,.68,0h.06l.28.07a2.5,2.5,0,0,1,.48.21,1.75,1.75,0,0,1,.29.18,8.37,8.37,0,0,1,2.33,2.79c.1.17.2.35.29.53.19.35.38.72.55,1.1l.3.66c.45,1,.84,2.1,1.19,3.15C469.66,156.68,469.68,156.73,469.69,156.78Z" style="fill:none;stroke:#263238;stroke-linecap:round;stroke-linejoin:round"></path><path d="M457.32,156.73l.05-.14s0,.09,0,.14Z" style="fill:none;stroke:#263238;stroke-linecap:round;stroke-linejoin:round"></path><path d="M469.7,156.78h0c0-.05,0-.1,0-.14Z" style="fill:none;stroke:#263238;stroke-linecap:round;stroke-linejoin:round"></path><path d="M432.15,212.35c0,3.08-5,9.21-5.62,9.21-.84,0-5.55-6.17-5.54-9.25a5.58,5.58,0,0,1,11.16,0Z" style="fill:none;stroke:#263238;stroke-linecap:round;stroke-linejoin:round"></path><path d="M447.17,97c-.45-4.44-2.68-13.76-6.05-22.21l.34.9-28.63-.11a97.63,97.63,0,0,0-5.89,21.26,12.14,12.14,0,0,0,0,2.41l4.3,70.18,1,16.51.32,4.54,28.3.11.33-4.38,1.14-16.38,4.86-70.42A11.42,11.42,0,0,0,447.17,97Z" style="fill:none;stroke:#263238;stroke-linecap:round;stroke-linejoin:round"></path><polygon points="440.85 190.61 436.56 204.35 416.67 204.27 412.55 190.5 440.85 190.61" style="fill:none;stroke:#263238;stroke-linecap:round;stroke-linejoin:round"></polygon><path d="M441.46,75.71l-28.63-.11c.06-.17.13-.33.19-.5a57.29,57.29,0,0,1,6.27-12.36c2.43-3.42,5.11-5.64,7.93-5.63,5.25,0,10,7.82,13.5,16.7.14.33.27.66.4,1Z" style="fill:none;stroke:#263238;stroke-linecap:round;stroke-linejoin:round"></path><line x1="407.89" y1="160.87" x2="407.92" y2="161.42" style="fill:none;stroke:#263238;stroke-linecap:round;stroke-linejoin:round"></line><line x1="407.89" y1="161.01" x2="407.92" y2="161.42" style="fill:none;stroke:#263238;stroke-linecap:round;stroke-linejoin:round"></line><line x1="407.91" y1="161.24" x2="407.92" y2="161.42" style="fill:none;stroke:#263238;stroke-linecap:round;stroke-linejoin:round"></line><circle cx="427.89" cy="108.57" r="11.77" transform="translate(159.71 459.22) rotate(-66.83)" style="fill:none;stroke:#263238;stroke-linecap:round;stroke-linejoin:round"></circle><path d="M434.71,108.6a6.83,6.83,0,1,1-6.8-6.85A6.82,6.82,0,0,1,434.71,108.6Z" style="fill:none;stroke:#263238;stroke-linecap:round;stroke-linejoin:round"></path><circle cx="427.77" cy="139.03" r="11.77" transform="translate(277.77 563.07) rotate(-88.52)" style="fill:none;stroke:#263238;stroke-linecap:round;stroke-linejoin:round"></circle><path d="M434.59,139.06a6.83,6.83,0,1,1-6.8-6.86A6.82,6.82,0,0,1,434.59,139.06Z" style="fill:none;stroke:#263238;stroke-linecap:round;stroke-linejoin:round"></path></g><g id="freepik--Videos--inject-8"><rect x="253.82" y="43.97" width="100.62" height="60.92" style="fill:none;stroke:#263238;stroke-linecap:round;stroke-linejoin:round"></rect><rect x="253.82" y="97.25" width="100.62" height="7.64" style="fill:none;stroke:#263238;stroke-linecap:round;stroke-linejoin:round"></rect><rect x="253.82" y="99.87" width="100.62" height="2.39" style="fill:none;stroke:#263238;stroke-linecap:round;stroke-linejoin:round"></rect><polygon points="313.12 72.63 295.15 62.25 295.15 83 313.12 72.63" style="fill:none;stroke:#263238;stroke-linecap:round;stroke-linejoin:round"></polygon><polygon points="354.56 94.2 354.56 104.9 307.96 104.9 307.96 138.14 380.54 138.14 380.54 94.2 354.56 94.2" style="fill:none;stroke:#263238;stroke-linecap:round;stroke-linejoin:round"></polygon><rect x="307.96" y="132.62" width="72.58" height="5.51" style="fill:none;stroke:#263238;stroke-linecap:round;stroke-linejoin:round"></rect><rect x="307.96" y="134.52" width="72.58" height="1.73" style="fill:none;stroke:#263238;stroke-linecap:round;stroke-linejoin:round"></rect><polygon points="350.73 114.87 337.77 107.38 337.77 122.35 350.73 114.87" style="fill:none;stroke:#263238;stroke-linecap:round;stroke-linejoin:round"></polygon></g><g id="freepik--Keyboard--inject-8"><rect x="36.18" y="274.93" width="116.09" height="40.65" style="fill:none;stroke:#263238;stroke-linecap:round;stroke-linejoin:round"></rect><rect x="40.05" y="279.16" width="5.32" height="5.32" style="fill:none;stroke:#263238;stroke-linecap:round;stroke-linejoin:round"></rect><rect x="48.17" y="279.16" width="5.32" height="5.32" style="fill:none;stroke:#263238;stroke-linecap:round;stroke-linejoin:round"></rect><rect x="56.28" y="279.16" width="5.32" height="5.32" style="fill:none;stroke:#263238;stroke-linecap:round;stroke-linejoin:round"></rect><rect x="64.39" y="279.16" width="5.32" height="5.32" style="fill:none;stroke:#263238;stroke-linecap:round;stroke-linejoin:round"></rect><rect x="72.51" y="279.16" width="5.32" height="5.32" style="fill:none;stroke:#263238;stroke-linecap:round;stroke-linejoin:round"></rect><rect x="80.62" y="279.16" width="5.32" height="5.32" style="fill:none;stroke:#263238;stroke-linecap:round;stroke-linejoin:round"></rect><rect x="88.73" y="279.16" width="5.32" height="5.32" style="fill:none;stroke:#263238;stroke-linecap:round;stroke-linejoin:round"></rect><rect x="96.85" y="279.16" width="5.32" height="5.32" style="fill:none;stroke:#263238;stroke-linecap:round;stroke-linejoin:round"></rect><rect x="104.96" y="279.16" width="5.32" height="5.32" style="fill:none;stroke:#263238;stroke-linecap:round;stroke-linejoin:round"></rect><rect x="113.07" y="279.16" width="5.32" height="5.32" style="fill:none;stroke:#263238;stroke-linecap:round;stroke-linejoin:round"></rect><rect x="121.19" y="279.16" width="5.32" height="5.32" style="fill:none;stroke:#263238;stroke-linecap:round;stroke-linejoin:round"></rect><rect x="40.05" y="286.86" width="5.32" height="5.32" style="fill:none;stroke:#263238;stroke-linecap:round;stroke-linejoin:round"></rect><rect x="48.17" y="286.86" width="5.32" height="5.32" style="fill:none;stroke:#263238;stroke-linecap:round;stroke-linejoin:round"></rect><rect x="56.28" y="286.86" width="5.32" height="5.32" style="fill:none;stroke:#263238;stroke-linecap:round;stroke-linejoin:round"></rect><rect x="64.39" y="286.86" width="5.32" height="5.32" style="fill:none;stroke:#263238;stroke-linecap:round;stroke-linejoin:round"></rect><rect x="72.51" y="286.86" width="5.32" height="5.32" style="fill:none;stroke:#263238;stroke-linecap:round;stroke-linejoin:round"></rect><rect x="80.62" y="286.86" width="5.32" height="5.32" style="fill:none;stroke:#263238;stroke-linecap:round;stroke-linejoin:round"></rect><rect x="88.73" y="286.86" width="5.32" height="5.32" style="fill:none;stroke:#263238;stroke-linecap:round;stroke-linejoin:round"></rect><rect x="96.85" y="286.86" width="5.32" height="5.32" style="fill:none;stroke:#263238;stroke-linecap:round;stroke-linejoin:round"></rect><rect x="104.96" y="286.86" width="5.32" height="5.32" style="fill:none;stroke:#263238;stroke-linecap:round;stroke-linejoin:round"></rect><rect x="113.07" y="286.86" width="5.32" height="5.32" style="fill:none;stroke:#263238;stroke-linecap:round;stroke-linejoin:round"></rect><rect x="121.19" y="286.86" width="5.32" height="5.32" style="fill:none;stroke:#263238;stroke-linecap:round;stroke-linejoin:round"></rect><rect x="40.05" y="294.55" width="5.32" height="5.32" style="fill:none;stroke:#263238;stroke-linecap:round;stroke-linejoin:round"></rect><rect x="48.17" y="294.55" width="5.32" height="5.32" style="fill:none;stroke:#263238;stroke-linecap:round;stroke-linejoin:round"></rect><rect x="56.28" y="294.55" width="5.32" height="5.32" style="fill:none;stroke:#263238;stroke-linecap:round;stroke-linejoin:round"></rect><rect x="64.39" y="294.55" width="5.32" height="5.32" style="fill:none;stroke:#263238;stroke-linecap:round;stroke-linejoin:round"></rect><rect x="72.51" y="294.55" width="5.32" height="5.32" style="fill:none;stroke:#263238;stroke-linecap:round;stroke-linejoin:round"></rect><rect x="80.62" y="294.55" width="5.32" height="5.32" style="fill:none;stroke:#263238;stroke-linecap:round;stroke-linejoin:round"></rect><rect x="88.73" y="294.55" width="5.32" height="5.32" style="fill:none;stroke:#263238;stroke-linecap:round;stroke-linejoin:round"></rect><rect x="96.85" y="294.55" width="5.32" height="5.32" style="fill:none;stroke:#263238;stroke-linecap:round;stroke-linejoin:round"></rect><rect x="104.96" y="294.55" width="5.32" height="5.32" style="fill:none;stroke:#263238;stroke-linecap:round;stroke-linejoin:round"></rect><rect x="113.07" y="294.55" width="5.32" height="5.32" style="fill:none;stroke:#263238;stroke-linecap:round;stroke-linejoin:round"></rect><rect x="121.19" y="294.55" width="5.32" height="5.32" style="fill:none;stroke:#263238;stroke-linecap:round;stroke-linejoin:round"></rect><rect x="40.05" y="302.24" width="5.32" height="5.32" style="fill:none;stroke:#263238;stroke-linecap:round;stroke-linejoin:round"></rect><rect x="48.17" y="302.24" width="5.32" height="5.32" style="fill:none;stroke:#263238;stroke-linecap:round;stroke-linejoin:round"></rect><polygon points="92.37 302.25 88.73 302.25 85.94 302.25 80.62 302.25 77.82 302.25 72.51 302.25 69.71 302.25 64.39 302.25 56.28 302.25 56.28 307.56 64.39 307.56 69.71 307.56 72.51 307.56 77.82 307.56 80.62 307.56 85.94 307.56 88.73 307.56 92.37 307.56 94.05 307.56 94.05 302.25 92.37 302.25" style="fill:none;stroke:#263238;stroke-linecap:round;stroke-linejoin:round"></polygon><rect x="96.85" y="302.24" width="5.32" height="5.32" style="fill:none;stroke:#263238;stroke-linecap:round;stroke-linejoin:round"></rect><rect x="104.96" y="302.24" width="5.32" height="5.32" style="fill:none;stroke:#263238;stroke-linecap:round;stroke-linejoin:round"></rect><rect x="113.07" y="302.24" width="5.32" height="5.32" style="fill:none;stroke:#263238;stroke-linecap:round;stroke-linejoin:round"></rect><rect x="121.19" y="302.24" width="5.32" height="5.32" style="fill:none;stroke:#263238;stroke-linecap:round;stroke-linejoin:round"></rect><rect x="129.35" y="278.32" width="19.86" height="11.75" style="fill:none;stroke:#263238;stroke-linecap:round;stroke-linejoin:round"></rect><path d="M147.39,301a8.11,8.11,0,1,0-8.11,8.11A8.11,8.11,0,0,0,147.39,301Z" style="fill:none;stroke:#263238;stroke-linecap:round;stroke-linejoin:round"></path></g><g id="freepik--Chart--inject-8"><rect x="36.18" y="338.53" width="67.41" height="5.05" style="fill:#92E3A9;stroke:#263238;stroke-linecap:round;stroke-linejoin:round"></rect><rect x="36.18" y="347.51" width="47.57" height="5.05" style="fill:#fff;stroke:#263238;stroke-linecap:round;stroke-linejoin:round"></rect><rect x="36.18" y="374.44" width="47.57" height="5.05" style="fill:#92E3A9;stroke:#263238;stroke-linecap:round;stroke-linejoin:round"></rect><rect x="36.18" y="356.49" width="80.79" height="5.05" style="fill:#92E3A9;stroke:#263238;stroke-linecap:round;stroke-linejoin:round"></rect><rect x="36.18" y="365.47" width="97.85" height="5.05" style="fill:#fff;stroke:#263238;stroke-linecap:round;stroke-linejoin:round"></rect><line x1="37.12" y1="392.82" x2="92.47" y2="392.82" style="fill:none;stroke:#263238;stroke-miterlimit:10"></line><line x1="37.12" y1="401.84" x2="114.13" y2="401.84" style="fill:none;stroke:#263238;stroke-miterlimit:10"></line></g><g id="freepik--Floor--inject-8"><path d="M395.52,429.23c-18.22-13-74.49-22.49-141.08-22.49s-122.86,9.48-141.08,22.49h-6.22v9.1c0,17.45,66,31.59,147.3,31.59s147.3-14.14,147.3-31.59v-9.1Z" style="fill:#263238;stroke:#263238;stroke-linecap:round;stroke-linejoin:round"></path><ellipse cx="254.44" cy="429.23" rx="147.3" ry="31.59" style="fill:#92E3A9;stroke:#263238;stroke-linecap:round;stroke-linejoin:round"></ellipse></g><g id="freepik--character-2--inject-8"><path d="M266.6,286s-.13,29.2,2.18,41.74,5.61,38.3,5.94,42.26,2.31,22.78,2.64,27.74a18,18,0,0,0,3,8.58l-.33,4a2,2,0,0,0-2.32,1.65,37.9,37.9,0,0,0-.33,5s-7.92,6.27-10.89,10.23,1.32,5.28,8.25,6.27,10.57-2.64,14.2-5.28,6.93-3.63,7.59-5.94a34.58,34.58,0,0,0,.66-6.93v-6.28c0-3-.66-9.57-.66-9.57s-2.31-46.89-2.64-50.52-1-18.16-.66-19.81.33-15.85.33-15.85,6.61,43.26,7.6,46.56,1.65,17.5,4.29,26.41,4.29,25.09,4.29,25.09-1.65,3.3-1.32,5.62,1.65,7.59,1.65,7.59,5.61,3.3,8.25,6.93S330.85,437,334.81,436s2.64-7.27.33-10.9a77.3,77.3,0,0,0-5.94-7.59c-1-1.32-1.32-3.31-1.65-5.62s-2-4-2.31-4.95a22.93,22.93,0,0,1-1.32-8.58c.33-3.63-.66-58.11-1.32-65.05s1-36.64-3.3-49.52l-49.86-3.63Z" style="fill:#263238;stroke:#263238;stroke-linecap:round;stroke-linejoin:round"></path><path d="M275.89,202s-9.9,5-13.08,6.35-7.45,3.67-9.9,8.68,0,12.23.61,14.18,3.91,13.21,3.91,13.21-1.34,9.78-.12,13.45,3.67,4.76,6.11,4.76a8.71,8.71,0,0,0,4.65-1.71s.37,13.21-.73,17-1.71,7.09-.74,8.06,17.24,6.85,30.2,5.51,22-3.06,23.47-4.65,1.59-1.1,1.35-2.93-1-3.06-1-4.28-3.3-23.35-3.18-24.7-.24-6-.24-6.36,7.33-6.72,7.94-6.72,7,1.34,7,1.34,1-4,.37-6.23a5.23,5.23,0,0,0-2.08-3.06s.73-1.83.24-2.69-2.68-1.71-3.05-1.83a14.62,14.62,0,0,1-2.94-4.28c-.12-.85-5.25-20-7.82-24s-6.48-6.85-12.23-6.24-11.61,3.31-13.32,3.79-6.6,2.45-6.6,2.45Z" style="fill:#92E3A9;stroke:#263238;stroke-linecap:round;stroke-linejoin:round"></path><path d="M330.42,233.87s.73-1.83.24-2.69-2.68-1.71-3.05-1.83a14.62,14.62,0,0,1-2.94-4.28c-.12-.85-5.25-20-7.82-24s-6.48-6.85-12.23-6.24-11.61,3.31-13.32,3.79-6.6,2.45-6.6,2.45l-8.81.86s-9.9,5-13.08,6.35-7.45,3.67-9.9,8.68,0,12.23.61,14.18,3.91,13.21,3.91,13.21-1.34,9.78-.12,13.45,3.67,4.76,6.11,4.76a8.71,8.71,0,0,0,4.65-1.71,62.89,62.89,0,0,0-1.71-11.37c-1.35-4.64-5.38-19-5.38-20.05s4-10.14,7.82-16a48.35,48.35,0,0,1,8.68-9.91l11.5-2.2a80.34,80.34,0,0,1,14.54,11.86c6.73,7.09,8.32,8.07,8.56,11.25s5.14,24.08,5.14,24.08c0-.36,7.33-6.72,7.94-6.72s7,1.34,7,1.34,1-4,.37-6.23A5.23,5.23,0,0,0,330.42,233.87Z" style="fill:#263238;stroke:#263238;stroke-linecap:round;stroke-linejoin:round"></path><path d="M306.8,286.23q2.81-.44,5.84-1.06" style="fill:none;stroke:#263238;stroke-linecap:round;stroke-linejoin:round"></path><path d="M274.12,284.94s10.26,4.25,30,1.67" style="fill:none;stroke:#263238;stroke-linecap:round;stroke-linejoin:round"></path><path d="M310.82,280.38s-6.61,3-19.15,4.33" style="fill:none;stroke:#263238;stroke-linecap:round;stroke-linejoin:round"></path><path d="M271.49,190s1.84,8.2,1.47,11.86,1.1,11.62,8.31,11.49,10.52-8.68,10.52-10.75-1.35-11.5-1.35-11.5-.49,2.2-6.48,1.35S271.49,190,271.49,190Z" style="fill:#fff;stroke:#263238;stroke-linecap:round;stroke-linejoin:round"></path><polygon points="280.32 193.51 273.36 198.92 271.25 191.33 280.32 193.51" style="fill:#263238;stroke:#263238;stroke-linecap:round;stroke-linejoin:round"></polygon><path d="M260.7,182.64a12.61,12.61,0,0,0,2.23,3.55c1.35,1.34,3.79,1,3.79,1s2.94,4.76,5.38,6.72,9.17,5.38,13.45,5.38,6.36-3.55,7.09-6.48A69.56,69.56,0,0,0,295,181.42c.37-4.28-2.93-12.71-4.76-15.16s-3.3-4.4-3.3-4.4-10.27-1.1-13.57.12-6.36,3.18-7.1,4.65a16.13,16.13,0,0,0-1.71,5.38c0,1.34,1.35,6.6,1.35,7s.24,1-.12,1.23.79,3.31.79,3.31L263.91,180l-3.05.49Z" style="fill:#fff;stroke:#263238;stroke-linecap:round;stroke-linejoin:round"></path><path d="M290.44,191.08a8.65,8.65,0,0,1-8.71-1.71" style="fill:none;stroke:#263238;stroke-linecap:round;stroke-linejoin:round"></path><path d="M266.72,175.55s.25-3.67,1.1-4.77,4-2.81,5.38-4a5.92,5.92,0,0,0,1.71-2.69l8.07.86,10.88,3.66a37.47,37.47,0,0,0-2.81-3.05c-1-.86-1.83-1.71-1.83-1.71s6.23.12,7.94,1.1a17.43,17.43,0,0,0,2.45,1.22s-2.32-5-6.48-7.58a24.87,24.87,0,0,0-8.68-3.18l3.18-1.59s-4-2.57-11.74-2.08-13.2,3.91-15.4,6.73-4.16,4.89-4.65,7.82,1.59,7.58,2.81,8.8a54.78,54.78,0,0,1,3.67,4.65l4.65-1.84Z" style="fill:#263238;stroke:#263238;stroke-linecap:round;stroke-linejoin:round"></path><path d="M278.57,183s-11.31.88-12,.56-1.47-7.06-1.51-7.85,10.7-6.48,10.7-6.48Z" style="fill:#9c9c9c;stroke:#263238;stroke-linecap:round;stroke-linejoin:round"></path><path d="M297.53,166.29a6.77,6.77,0,0,1,2.88,4.29c.81,3.17-.1,6.83-3.24,8.43s-5.06,1.41-6.69.9-1.78-1.14-2.48-.88-1.08,1.22-2.47,2.16a8.41,8.41,0,0,1-4.67,1.91c-2.2.16-5.48.14-7-2.24a8.69,8.69,0,0,1-.58-8.66c1.54-2.76,4.72-3.43,7.48-4.32a130.92,130.92,0,0,1,13.35-2.54A5.35,5.35,0,0,1,297.53,166.29Z" style="fill:#fff;stroke:#263238;stroke-linecap:round;stroke-linejoin:round"></path><path d="M285,168.45s7.46-2.16,10.43-1.46,4.71,4.82,3.2,8.53-6.58,3.1-8.16,2.2a2.9,2.9,0,0,0-3.62.45c-1.56,1.6-3.86,4.23-9.1,2.94s-4.41-7.64-2.27-9.7S285,168.45,285,168.45Z" style="fill:#92E3A9;stroke:#263238;stroke-linecap:round;stroke-linejoin:round"></path><polygon points="266.13 176.58 259.63 179.34 260.7 182.64 266.96 181.11 266.13 176.58" style="fill:#595959;stroke:#263238;stroke-linecap:round;stroke-linejoin:round"></polygon><path d="M289.46,180.32l2.33,3.3s-.74,1.35-1.59,1.59-1.59.12-2,.61l-.37.49" style="fill:none;stroke:#263238;stroke-linecap:round;stroke-linejoin:round"></path><path d="M289.31,216.47l.39,3.32a1.9,1.9,0,0,1-1.41,1.15c-1,.12-3.84.63-6.14-.26s-3.19-1.92-4.47-1.92-1.53,2.05-.89,3.2,4.65,3.22,7.07,3.48a21.31,21.31,0,0,1,5.64,1.8,27.19,27.19,0,0,0,4.2,2.16,16.88,16.88,0,0,1,3.23,1.57s3.32,2.17,5.62,2.42c0,0,9,10.7,12.82,14.37s6.26,7.16,12.27,9.07c3.13,1,7,1.15,8.43-2.3a15.33,15.33,0,0,0-1.45-13.78c-2.58-3.67-7.38-4.65-11.31-6.21a88.66,88.66,0,0,1-14.64-8c-2.51-1.6-3.52-2.12-4-5-.22-1.36-.27-4-1.57-4.86a2,2,0,0,0-2.81.13c-.38.38-.89,1-.89,1s1-4.62.27-5.77-7.17.92-7.81.92S289.31,216.47,289.31,216.47Z" style="fill:#fff;stroke:#263238;stroke-linecap:round;stroke-linejoin:round"></path><polygon points="294.45 210.18 295.68 213.24 292.62 215.92 291.32 213.39 294.45 210.18" style="fill:#fff;stroke:#263238;stroke-linecap:round;stroke-linejoin:round"></polygon><path d="M291.17,210.15s-2.73-1.65-3.93-1.56-4.25,1.82-5.56,2.51-.22,1.31,1.74,1.31a15.17,15.17,0,0,0,3.93-.61l2.51,1Z" style="fill:#fff;stroke:#263238;stroke-linecap:round;stroke-linejoin:round"></path><path d="M294.33,212.36A46.41,46.41,0,0,1,289,216c-.88.47-1.92.33-1.75-1.12.14-1.14,3.24-4,4.56-5.15a2,2,0,0,1,1.57-.47C294.52,209.44,296,210,294.33,212.36Z" style="fill:#fff;stroke:#263238;stroke-linecap:round;stroke-linejoin:round"></path><path d="M296.75,210.69s-6.89,5.75-6.49,7.15,2,.42,2.49.32a33.49,33.49,0,0,0,6-3.62c1.12-1.06,1.34-2.63.84-3.11A2.58,2.58,0,0,0,296.75,210.69Z" style="fill:#fff;stroke:#263238;stroke-linecap:round;stroke-linejoin:round"></path><path d="M302.46,218.23A13.62,13.62,0,0,1,299,220c-.74.21-2.85,1.06-2.75-.32s4.13-4,4.13-4a2.13,2.13,0,0,1,2.12-.32,1.6,1.6,0,0,1,1.27,1.59" style="fill:#fff;stroke:#263238;stroke-linecap:round;stroke-linejoin:round"></path><path d="M298.8,220.24a2.91,2.91,0,0,0,2.6,1.8" style="fill:#fff;stroke:#263238;stroke-linecap:round;stroke-linejoin:round"></path><path d="M295.14,223.83s.5,5.66,4.33,7.16,4,.67,4,.67" style="fill:#fff;stroke:#263238;stroke-linecap:round;stroke-linejoin:round"></path><path d="M257.62,247.38a12.86,12.86,0,0,0-3.09,7.39c-.14,4.17,4.43,7.8,7.93,8.2a6.16,6.16,0,0,0,6.45-3.89,14.19,14.19,0,0,0-2.42-10.76A6.37,6.37,0,0,0,257.62,247.38Z" style="fill:#fff;stroke:#263238;stroke-linecap:round;stroke-linejoin:round"></path><path d="M263.07,237.84s-.27,3.91-.94,5-5.4-1.08-6.34-1.48-1.49,1.48-.95,3,.81,4.45,1.49,6.2a18.37,18.37,0,0,0,3.1,4.32s.54,1.08.94,1.21,1.76,2,4.73,1.89,4.18-3.24,3.64-4.31-1.62-3.82-1.62-3.82a6,6,0,0,0,1.62-4c0-2.43-1.62-5.13-1.62-5.67S264.29,237.44,263.07,237.84Z" style="fill:#fff;stroke:#263238;stroke-linecap:round;stroke-linejoin:round"></path><path d="M252.55,238.52s-.81,3.37,0,4.31,5.8.95,6.88.81a1.82,1.82,0,0,0,1.21-2.56c-.54-1-4.18-2.16-5.53-2.7S253.36,238,252.55,238.52Z" style="fill:#fff;stroke:#263238;stroke-linecap:round;stroke-linejoin:round"></path><path d="M252.28,245.26c0,1.89,0,2.83,1.21,3s5.8.81,6.75.27,1.35-2.7.13-3.1a66.2,66.2,0,0,0-6.47-1.76C252.82,243.51,252.28,244.32,252.28,245.26Z" style="fill:#fff;stroke:#263238;stroke-linecap:round;stroke-linejoin:round"></path><path d="M254.84,249.73a2,2,0,0,0-1.11,3.46l0,0c1.22,1.08,5.13-.54,6.34-1.48s1.22-2.16-.27-2.43A21.58,21.58,0,0,0,254.84,249.73Z" style="fill:#fff;stroke:#263238;stroke-linecap:round;stroke-linejoin:round"></path><path d="M258.9,253.39a1.74,1.74,0,0,0-.95,3l0,0c1,.92,4.38-.46,5.42-1.27s1-1.85-.23-2.08A18.85,18.85,0,0,0,258.9,253.39Z" style="fill:#fff;stroke:#263238;stroke-linecap:round;stroke-linejoin:round"></path><path d="M265.23,236.9s-2.16-.68-2.16.94-.27,5,.81,5.94,2.83.81,3.1.13a46,46,0,0,0,1.08-5.13C268.33,237.17,266.31,237.3,265.23,236.9Z" style="fill:#fff;stroke:#263238;stroke-linecap:round;stroke-linejoin:round"></path></g><g id="freepik--character-1--inject-8"><path d="M219,288.76a32.41,32.41,0,0,0-2.39-12.83l-48.74-2.57-1.28,4.4v11a197.43,197.43,0,0,0,0,27.12c1.1,12.27,4.76,30.05,4.95,32.61s0,14.3,1.65,26,.55,28.41.55,30.24a33.37,33.37,0,0,1-1.1,5.86s-.92,1.28-6.78,4.4-10.08,6.41-7.7,8.24,8.25,3.3,14.29,1.1,7.7-6,10.08-6.78,4,.37,5.68-2.56-1.46-8.8-1.46-11.18.91-22.9,2.56-28.77,2.57-26.2,2.57-26.2,4.94,20.89,7.51,28.77c.56,1.72,1.19,3.86,1.85,6.18l3.64,23.13v2.41l-1.4,2.41,1.2,6.63.29.08c-.26.62-.54,1.3-.82,2-1.65,4.39-5.31,6.41-4.94,9.52s6.59,4.4,10.44,3.3,6.23-4.21,6.41-6.23.19-8.24.92-10.63-.73-9.34-.37-14.47,1.47-21.07.37-31-1.1-24.37-2.2-31.33-.91-23.27,0-26.76S218.77,295.9,219,288.76Z" style="fill:#263238;stroke:#263238;stroke-linecap:round;stroke-linejoin:round"></path><path d="M190.14,337.52c.39,3,.78,5.73,1.15,8" style="fill:none;stroke:#9c9c9c;stroke-linecap:round;stroke-linejoin:round"></path><path d="M177,294.25l9,7.52s1.73,16.6,3.53,30.81" style="fill:none;stroke:#9c9c9c;stroke-linecap:round;stroke-linejoin:round"></path><path d="M166.37,270.25s-.74,5.68.18,7.51,5.31,4.22,17.22,5.5,26-1.65,29-2.57,4.76-1.83,5.31-3.66-1.28-5.86-1.28-5.86S205.4,275,189.09,274.1,166.37,270.25,166.37,270.25Z" style="fill:#92E3A9;stroke:#263238;stroke-linecap:round;stroke-linejoin:round"></path><path d="M143,203.16s13.62,2,22,1.17S183,200,184.71,200s17.65.51,24,1.52,12.1,3.53,14.79,13.28-3.72,21.38-6.08,30.79a44.58,44.58,0,0,0-.47,18.12s1.51,6.22,1,7.91,0,1.34-2.85,3-6.56,3.2-19.84,3.53-21.18-1.18-25.72-2.69-4.37-7.73-4.37-7.73-.17-2.87,1.78-9.83c2.19-7.81,1.85-12.52,1.85-17.73s.34-14.12.34-14.12-17.1-1.84-24.85-4.56c-3.69-1.29-12.1-2.27-13.92-3.17,0,0-5.55-3-4.54-7.75s4.54-6.38,6.56-7.39S143,203.16,143,203.16Z" style="fill:#92E3A9;stroke:#263238;stroke-linecap:round;stroke-linejoin:round"></path><path d="M145.54,207.7s-.84,6.38-3.19,9.07" style="fill:none;stroke:#263238;stroke-linecap:round;stroke-linejoin:round"></path><path d="M146.21,209.71a18.71,18.71,0,0,1-1.17,7.74" style="fill:none;stroke:#263238;stroke-linecap:round;stroke-linejoin:round"></path><path d="M209.59,231.23s4.54,5.55,8.24,6.89" style="fill:none;stroke:#263238;stroke-linecap:round;stroke-linejoin:round"></path><path d="M163,184.1a7.12,7.12,0,0,1,3.6-2.61c2.45-.82,3.1-.66,4.08-1.8s3.39-3.69,3.39-3.69l1.22-.89a2.08,2.08,0,0,0-1.83-1c-1.31,0-2.94,1.31-3.43,1.47a12.37,12.37,0,0,1-1.31.33,23.77,23.77,0,0,1,2.13-4.41c1-1.31,5.66-9.32,5.66-9.32s-.41-.78-1.9.16-8.83,3.11-11.12,5.07-4.25,8-5.07,9.48-1.8,3.43-2.61,4.09-16.35,12.58-22.56,18.79-5.4,11.28-1.15,13.08,7,1.15,8.83,0S163,184.1,163,184.1Z" style="fill:#fff;stroke:#263238;stroke-linecap:round;stroke-linejoin:round"></path><path d="M161.71,181a11.2,11.2,0,0,0,2.13-3.11c.65-1.63.16-6.21.49-6.87a10.64,10.64,0,0,1,2.78-2.45" style="fill:none;stroke:#263238;stroke-linecap:round;stroke-linejoin:round"></path><path d="M190.93,197.1s-9.41.68-11.26,3.2-3.7,4.54-3.2,10.93-.17,10.42.84,10.92,19.67-11.6,23.87-14.62,14.41-3.49,13-5.45-5.26-4.64-10.47-5.14A85.92,85.92,0,0,0,190.93,197.1Z" style="fill:#92E3A9;stroke:#263238;stroke-linecap:round;stroke-linejoin:round"></path><path d="M204.93,153s4-4.06,10.88-1.92,10.68,12,10.89,17.51-3.2,10.25-3.84,13.66a19.62,19.62,0,0,0,.21,7,7.88,7.88,0,0,1-8.54-1.07c-4.48-3.41-6.19-11.31-5.76-17.29s-3.84-16.23-3.84-16.23Z" style="fill:#263238;stroke:#263238;stroke-linecap:round;stroke-linejoin:round"></path><path d="M177.93,159.53s-2.38,10.58-2.62,15.58,2.14,10.11,3.21,12.48,3,6.9,5.12,7.14a15.88,15.88,0,0,0,4.4-.24l-1.19,4.64s.24,1.67-2.86,6.19a27.87,27.87,0,0,0-4.4,9.63c-.11,1-1.9,2.85-.11,2.74s13.08-11.3,17.72-14.75,7.61-5.59,7.61-5.59-2.26-3.21-1.43-6.19a68.24,68.24,0,0,1,3.45-8.32s4.88-2.5,5.59-6.19,1.31-2.49,1.67-5.94-.12-6.43-3.45-11.54-8.57-8.8-17.73-8.8-16.4,3.42-17.47,5S176.86,159.05,177.93,159.53Z" style="fill:#fff;stroke:#263238;stroke-linecap:round;stroke-linejoin:round"></path><path d="M181.44,185.73a6,6,0,0,0,6.11-.17" style="fill:none;stroke:#263238;stroke-linecap:round;stroke-linejoin:round"></path><path d="M192.91,150.37c-9.15,0-16.4,3.42-17.47,5s1.42,3.72,2.49,4.2a12.45,12.45,0,0,0,3.69-.84,20.48,20.48,0,0,0,4.52-2.38,8.43,8.43,0,0,0,3.52,7c3.81,2.62,10.51,5.11,12.06,6.77s1.3,3.45,1.42,5.71c.11,2,.22,6.65,3.35,7.73l.34-.71s4.88-2.5,5.59-6.19,1.31-2.5,1.67-5.94-.12-6.43-3.45-11.54S202.07,150.37,192.91,150.37Z" style="fill:#263238;stroke:#263238;stroke-linecap:round;stroke-linejoin:round"></path><path d="M180.19,179.27a2.51,2.51,0,0,0,1.78,2.26,2.93,2.93,0,0,0,2.74-.95" style="fill:none;stroke:#263238;stroke-linecap:round;stroke-linejoin:round"></path><polygon points="188.04 194.49 195.22 192.11 186.85 199.13 188.04 194.49" style="fill:#263238;stroke:#263238;stroke-linecap:round;stroke-linejoin:round"></polygon><path d="M192.85,179.07s11.34.35,12,0S206,172,206,171.16s-11-6-11-6Z" style="fill:#9c9c9c;stroke:#263238;stroke-linecap:round;stroke-linejoin:round"></path><path d="M173.13,163.3a6.83,6.83,0,0,0-2.67,4.43c-.66,3.2.41,6.82,3.63,8.27s5.12,1.17,6.72.58,1.73-1.22,2.44-1,1.13,1.17,2.56,2a8.41,8.41,0,0,0,4.76,1.69c2.21.06,5.48-.11,6.91-2.56a8.7,8.7,0,0,0,.18-8.68c-1.67-2.68-4.88-3.2-7.68-4a128.23,128.23,0,0,0-13.45-1.92A5.36,5.36,0,0,0,173.13,163.3Z" style="fill:#fff;stroke:#263238;stroke-linecap:round;stroke-linejoin:round"></path><path d="M185.75,164.89s-7.55-1.82-10.48-1-4.48,5-2.8,8.67,6.71,2.79,8.25,1.81a2.91,2.91,0,0,1,3.63.28c1.64,1.53,4.06,4.06,9.23,2.52s4.06-7.83,1.82-9.79S185.75,164.89,185.75,164.89Z" style="fill:#92E3A9;stroke:#263238;stroke-linecap:round;stroke-linejoin:round"></path><polygon points="204.98 172.13 213.32 173.97 212.97 177.75 204.36 176.69 204.98 172.13" style="fill:#595959;stroke:#263238;stroke-linecap:round;stroke-linejoin:round"></polygon><path d="M220.3,208.3c-2.58-2.85-10.17-7.72-14.91-5.42a15.39,15.39,0,0,0-6.77,7.05s-3.12,2.84-3.53,2.84a2.93,2.93,0,0,0-2.3.27c-.95.68-8.52,2.46-8.52,2.46a21.43,21.43,0,0,1-4.43,0,14.32,14.32,0,0,0-3.78,0s-7.85,10.37-7.31,12.13,10.44,6.23,13.83,6.91,11.72,0,12.13-.52,3.36.7,5,.3a11.13,11.13,0,0,0,3.66-2.31s3.52-1.08,5.15-1.76,5.28.81,9.89-1.49" style="fill:#92E3A9;stroke:#263238;stroke-linecap:round;stroke-linejoin:round"></path><path d="M183.23,217.19a7.15,7.15,0,0,1,3,6.52c-.26,4.57-1.83,6-1.83,6" style="fill:none;stroke:#263238;stroke-linecap:round;stroke-linejoin:round"></path><path d="M189.1,224.1a6.67,6.67,0,0,1-.91,4.57" style="fill:none;stroke:#263238;stroke-linecap:round;stroke-linejoin:round"></path><path d="M197.84,212.5s5.61,0,8.22,3.26" style="fill:none;stroke:#263238;stroke-linecap:round;stroke-linejoin:round"></path><path d="M150.25,200.11s-5.72-9.48-6.86-12.59-3.47-7.37-4.29-7.37a2.09,2.09,0,0,1-1.35-.51,5.83,5.83,0,0,0-.9-2.42,2.53,2.53,0,0,0-2.29-1.14s-2.78-.82-2.78,1.8a4.46,4.46,0,0,0-1.14,3.59c.33,2.13,3.43,9.32,3.92,11.28s.82,3.93.82,3.93-3.92-1.15-5.56-2.62-3.92-1.47-3.92.33,4.74,4.25,6.54,5.56,3.59,3.27,5.23,4.08a12.5,12.5,0,0,0,4.57,1c.49,0,8.34,8.34,8.34,8.34s10.14,12.1,16.84,14.22,11,2.29,13.08,1,3.59-2.64.64-7.71-5.33-5.47-9.91-8.08-12.31-7.09-15.91-9A20.87,20.87,0,0,1,150.25,200.11Z" style="fill:#fff;stroke:#263238;stroke-linecap:round;stroke-linejoin:round"></path><path d="M131.78,177.88s2,7,3.93,10.62" style="fill:none;stroke:#263238;stroke-linecap:round;stroke-linejoin:round"></path><path d="M134.56,176.08s1.81,8.66,3.45,12.48" style="fill:none;stroke:#263238;stroke-linecap:round;stroke-linejoin:round"></path><path d="M137.75,179.64s1.9,6.58,3.45,10.79" style="fill:none;stroke:#263238;stroke-linecap:round;stroke-linejoin:round"></path><path d="M141.91,197s.93,4.59,3.19,5.45a4.32,4.32,0,0,0,3.58.08" style="fill:none;stroke:#263238;stroke-linecap:round;stroke-linejoin:round"></path><path d="M135.38,196.68s2.32.14,2.86.22" style="fill:none;stroke:#263238;stroke-linecap:round;stroke-linejoin:round"></path></g><g id="freepik--Earth--inject-8"><path d="M130.12,101.86l10,4.49,2.74,4.5,4.5,1.75.5,4.74-1.75,2.75-3.49.75-7.5-3v-1l4.25-1.75-1.5-5.24-6.74-2.5-3-4Zm62.93,115.36-8-3.24-9.74-3.5h-7.74l-7.25-1.5-8,1.75-4.49.25H145.1l-5.24,3-5,2-6.74-4.25,1.75-7L125.63,203h-5l-.75-2.25.5-4.49-1.75-2.5-3.49.5-1,2.5-4.25.25-3.74-4.5-1.5-6,3.75-7,7.24.5,2,1.75h3l3.75-2.25,3.24,1,4.5,7.74,1.75-.25-.5-5.75-1.5-3,.5-4.75,9.24-4,1.24-9.24,4-3.25,3.25-5.74,2.49-.5,5.75-3.75.25-2-4,.25-.75-2H151.1l-4.25,1,2-3.25,8.74-2.5,2-2.24,3.49,5.49,2.25,2.25,3.49-1-1.49-3.25-5.25-3.74-6-6.74-6.24-4.25-6-1-3-3-4-1-.5,1-.5,7.25,1,2.49-2.25,8-5-4,.75-3.5-5.24-2.49-2.25-2.75,1.25-6.24,7.24-5.25.5-6-2.75.25-1.75-2.25-.75-3.74-1.74-.25-1,4-2.75.5-1.25-8.74-2-1.25-3.49-1.5-4,2,5,4.75,1,4.24-9-6.74-6.25-6.74-.5-6.74-6.49-2-5,3.24a38.69,38.69,0,0,1-3.75,2,41.71,41.71,0,0,1-6,1l-1,4.25-5.74.25.5,2.74,9.24,1.5,4.74,5.24v8.74l-2.75,7.74.5,8.25-7,12.23-1.5,18.23,2.25,10.49,3.25,8,3.74.5-1.25-4-2-3-1.25-5.5,2.24-.5,3.5,9,2.5,8v6.5L94.16,196l8.49,6.24,13,3.5,4,3.74,3,4,4.49,2.74,5.5,1.5,5.49-.25s-.25,2.5-.25,3.75-3.5,5.49-3.5,5.49l-2.74,5,2,5.49,5.49,2.25,7.74,8,3.5,1.5v3.74l.43,1.75a104.79,104.79,0,0,0,52.37-24.66l.13-1.81L210,215.73l-3.25-2.25Zm26-98.63-2.75-4.75-3.5-5.49-1-7.49,4.5.75.25-2.5-3.25-.25L216,97.61l3-1.74v-2.5l-3-4L215.38,84A105.27,105.27,0,0,0,91.9,54.08l5.76,4.08-3.5,4.49-4.74,1-.5,6.75-2,.74-2.5,2.75.25,4.5,4.25.5-1.75,4.24h4.25l7.24-9.24.75-4,7-.5,1.75-3,7.24-.75.75-4.24,5.24-.25s3.75-2,4.49-2a30.49,30.49,0,0,1,4.25,1.25l3.75,3h5.24l4.49-2.74,5.75.5a6.2,6.2,0,0,0,2.74,1c1.25,0,5-1.74,5-1.74l7.24,4.49,3,2.25v3.74l3.74.5,1.25-2.24,3.25,1.5-.25,2-7.49,2,4.24,5.49,9,5,3.75,5,5.49.5,1.25-2.5,2-.49-6.5-5-4-.5,3.24-1-3-4.24,4.24-.25,5.5,3,1.24,6L197,88.87l2.25,7.25,5.49,4v8.24l5.75,3.75-.25,2.74-.75,3.25,1.5,4.49.49,2.25,4.25.75,2-4.24Zm3.24-25.16v1.44l-1.25,4,.75,3.5,2.75,1v4.74l-3-1.25-.75,13.49-3,5.49,2,7,3.24,3V149.3l3.25,10.49,3.49,8,5.75,1.5,2-5,.82-.64a106.58,106.58,0,0,0,.81-13.08A104.75,104.75,0,0,0,222.26,93.43Zm-57.68-1.56L148.1,84.63l-7.24.25-1.75,4.74-3-3.24-5.49,1.25-.5,8.24,4.49,3.24,3.25-4.74,3.75,3.74,7.74,6.75,1.5,7.24,6.49,8.24,10.49-1.75-.25-3.75-2.25-4.24-.5-10,2.5-4.25Zm13.48,5.49-3.74-1-3.25,2.75,1.75,7.24h3.25Zm23.23,4.75-8.49-4.5-1.75-3-2,.75,1.75,5,1.5,6.49,3.74,1.5.75-1-2.25-3.74,6.5,2.49Zm-72.92,90.14-1,1,7.49,2.25,3,3.49,4.75.5,1.74-2.74-5.74-1ZM150.6,197l-5.25,1.5.75,2h6.49l1.25-2-2.25.25Z" style="fill:none;stroke:#263238;stroke-linecap:round;stroke-linejoin:round"></path><circle cx="133.9" cy="150.57" r="105.21" transform="translate(-67.25 138.78) rotate(-45)" style="fill:none;stroke:#263238;stroke-linecap:round;stroke-linejoin:round"></circle></g></svg>
